<!DOCTYPE svg PUBLIC "-//W3C//DTD SVG 1.1//EN" "http://www.w3.org/Graphics/SVG/1.1/DTD/svg11.dtd">
<!-- Uploaded to: SVG Repo, www.svgrepo.com, Transformed by: SVG Repo Mixer Tools -->
<svg version="1.1" id="Uploaded to svgrepo.com" xmlns="http://www.w3.org/2000/svg" xmlns:xlink="http://www.w3.org/1999/xlink" width="800px" height="800px" viewBox="0 0 32 32" xml:space="preserve" fill="#000000">
<g id="SVGRepo_bgCarrier" stroke-width="0"/>
<g id="SVGRepo_tracerCarrier" stroke-linecap="round" stroke-linejoin="round"/>
<g id="SVGRepo_iconCarrier"> <style type="text/css"> .puchipuchi_een{fill:#ffffff;} </style> <path class="puchipuchi_een" d="M27,6h-6V5c0-2.201-1.794-3-3-3h-4c-2.201,0-3,1.794-3,3v1H5C4.45,6,4,6.45,4,7s0.45,1,1,1h22 c0.55,0,1-0.45,1-1S27.55,6,27,6z M19,6h-6.014L13,5.012C13.012,4.55,13.194,4,14,4h3.988C18.45,4.012,19,4.195,19,5V6z M6.81,28.009C6.915,29.104,7.9,30,9,30h14c1.1,0,2.085-0.896,2.19-1.991L27,9H5L6.81,28.009z M21.003,12.923 c0.042-0.55,0.512-0.959,1.074-0.92c0.55,0.042,0.962,0.523,0.92,1.074l-1,13C21.957,26.601,21.519,27,21.001,27 c-0.025,0-0.052-0.001-0.078-0.003c-0.55-0.042-0.962-0.523-0.92-1.074L21.003,12.923z M15,13c0-0.552,0.447-1,1-1s1,0.448,1,1v13 c0,0.552-0.447,1-1,1s-1-0.448-1-1V13z M9.923,12.003c0.566-0.038,1.032,0.37,1.074,0.92l1,13c0.042,0.551-0.37,1.031-0.92,1.074 C11.051,26.999,11.024,27,10.999,27c-0.518,0-0.956-0.399-0.996-0.923l-1-13C8.961,12.526,9.373,12.045,9.923,12.003z"/> </g>
</svg>