<!DOCTYPE svg PUBLIC "-//W3C//DTD SVG 1.1//EN" "http://www.w3.org/Graphics/SVG/1.1/DTD/svg11.dtd">
<!-- Uploaded to: SVG Repo, www.svgrepo.com, Transformed by: SVG Repo Mixer Tools -->
<svg width="800px" height="800px" viewBox="0 0 24 24" fill="none" xmlns="http://www.w3.org/2000/svg">
<g id="SVGRepo_bgCarrier" stroke-width="0"/>
<g id="SVGRepo_tracerCarrier" stroke-linecap="round" stroke-linejoin="round"/>
<g id="SVGRepo_iconCarrier"> <path d="M6 5V20" stroke="#ffffff" stroke-width="2" stroke-linecap="round"/> <path d="M12 5V20" stroke="#ffffff" stroke-width="2" stroke-linecap="round"/> <path d="M18 5V20" stroke="#ffffff" stroke-width="2" stroke-linecap="round"/> <path d="M8.5 16C8.5 17.3807 7.38071 18.5 6 18.5C4.61929 18.5 3.5 17.3807 3.5 16C3.5 14.6193 4.61929 13.5 6 13.5C7.38071 13.5 8.5 14.6193 8.5 16Z" fill="#ffffff"/> <path d="M14.5 9C14.5 10.3807 13.3807 11.5 12 11.5C10.6193 11.5 9.5 10.3807 9.5 9C9.5 7.61929 10.6193 6.5 12 6.5C13.3807 6.5 14.5 7.61929 14.5 9Z" fill="#ffffff"/> <path d="M20.5 16C20.5 17.3807 19.3807 18.5 18 18.5C16.6193 18.5 15.5 17.3807 15.5 16C15.5 14.6193 16.6193 13.5 18 13.5C19.3807 13.5 20.5 14.6193 20.5 16Z" fill="#ffffff"/> </g>
</svg>